<?xml version="1.0" encoding="utf-8"?>
<!-- Generator: Adobe Illustrator 18.0.0, SVG Export Plug-In . SVG Version: 6.00 Build 0)  -->
<!DOCTYPE svg PUBLIC "-//W3C//DTD SVG 1.1//EN" "http://www.w3.org/Graphics/SVG/1.1/DTD/svg11.dtd">
<svg version="1.1" id="Layer_1" xmlns="http://www.w3.org/2000/svg" xmlns:xlink="http://www.w3.org/1999/xlink" x="0px" y="0px"
	 viewBox="0 0 64 64" enable-background="new 0 0 64 64" xml:space="preserve">
<g>
	<g>
		<g>
			<path fill="#F9EEB2" d="M32,0c17.7,0,32,14.3,32,32S49.7,64,32,64S0,49.7,0,32S14.3,0,32,0z"/>
		</g>
	</g>
	<g>
		<g>
			<path fill="#3BCC9C" d="M36.3,44.2C34.9,44.1,33.5,44,32,44s-2.9,0.1-4.3,0.2C20.4,44.7,15,46.7,15,49c0,2.8,7.6,5,17,5
				s17-2.2,17-5C49,46.7,43.6,44.7,36.3,44.2z"/>
		</g>
	</g>
	<g>
		<g>
			<path fill="#E84B4B" d="M32,11c-7.7,0-14,6.4-14,14.2c0,6.5,5.6,14,9.7,18.9c0.8,1,1.6,1.9,2.3,2.6C30.4,47.3,32,49,32,49
				s1.6-1.8,2.2-2.4c0.6-0.7,1.3-1.5,2.1-2.5c4.1-4.9,9.7-12.4,9.7-18.9C46,17.4,39.7,11,32,11z M32,29c-2.2,0-4-1.8-4-4s1.8-4,4-4
				s4,1.8,4,4S34.2,29,32,29z"/>
		</g>
	</g>
	<g>
		<g>
			<path fill="#B21212" d="M32,18c3.9,0,7,3.1,7,7s-3.1,7-7,7s-7-3.1-7-7S28.1,18,32,18z M36,25c0-2.2-1.8-4-4-4s-4,1.8-4,4
				s1.8,4,4,4S36,27.2,36,25z"/>
		</g>
	</g>
</g>
</svg>
